<?xml version="1.0" encoding="utf-8"?>
<!-- Svg Vector Icons : http://www.onlinewebfonts.com/icon -->
<!DOCTYPE svg PUBLIC "-//W3C//DTD SVG 1.1//EN" "http://www.w3.org/Graphics/SVG/1.1/DTD/svg11.dtd">
<svg version="1.1" xmlns="http://www.w3.org/2000/svg" xmlns:xlink="http://www.w3.org/1999/xlink"
    x="0px" y="0px" viewBox="0 0 1000 1000" enable-background="new 0 0 1000 1000"
    xml:space="preserve">
    <g style="stroke-width: 100px; stroke: #ff3b30; fill: #ff3b30">
        <g transform="translate(0.000000,511.000000) scale(0.100000,-0.100000)">
            <path d="M237.5,3535.8C163.9,3497,100,3396.3,100,3318.9c-1.9-27.1,131.7-315.7,294.4-643l294.4-596.5l-294.4-594.6C231.7,1155.5,98.1,866.9,100,839.8c1.9-135.6,143.3-261.5,273.1-246c137.5,17.4,158.8,48.4,435.8,598.5c180.1,358.3,269.2,515.2,284.7,505.5c13.6-5.8,389.3-255.6,834.7-553.9c592.6-395.1,830.9-544.2,881.2-550c129.8-15.5,273.1,112.3,273.1,242.1c0,129.8-23.2,149.1-985.8,790.2L1171,2244l-311.8,621.7c-226.6,451.3-325.4,631.4-364.1,656.6C415.7,3572.6,315,3578.4,237.5,3535.8z" />
            <path d="M9532,3535.8c-62-31-98.8-98.8-385.4-664.3L8829,2242l-925.8-615.9c-962.6-641.1-985.8-660.4-985.8-790.2c0-129.8,143.3-257.6,273.1-242.1c50.4,5.8,288.6,154.9,881.2,550c445.4,298.3,821.2,548.1,834.8,553.9c15.5,9.7,104.6-147.2,284.7-505.5c277-550,298.3-581,435.8-598.5c129.7-15.5,271.1,110.4,273.1,246c1.9,27.1-131.7,315.7-294.4,644.9l-294.4,594.6l294.4,596.5c162.7,327.3,296.3,615.9,294.4,643c-1.9,120.1-131.7,251.8-251.8,251.8C9621.1,3570.6,9568.8,3555.1,9532,3535.8z" />

            <path fill="#ff3b30" d="M 905.961 -284.605 L 2680.069 -292.427 L 2731.498 -527.332 L 2969.076 -1342.56 L 3667.993 -2462.855 L 3933.555 -2781.487 L 3606.801 -2795.177 L 3099.412 -2592.974 C 3099.412 -2592.974 999.136 -1373.279 984.154 -450.262"></path>


            <path d="M547.4,127.1C475.7,88.4,409.9-12.4,409.9-84c0-145.3,329.2-879.3,536.5-1196.9C1694-2421.7,2900.6-3138.3,4389.9-3326.1c288.6-36.8,993.6-31,1287.9,9.7c1460.3,199.5,2639.8,910.3,3375.8,2035.5c211.1,323.4,536.5,1049.7,536.5,1198.9c0,69.7-65.8,170.4-137.5,209.2c-62,32.9-137.5,34.9-1198.9,34.9c-1055.5,0-1138.8-1.9-1198.9-34.9c-46.5-25.2-93-85.2-166.6-211.1c-323.4-561.7-784.4-929.6-1363.5-1086.5c-166.6-44.5-220.8-50.4-524.9-50.4s-358.3,5.8-524.9,50.4c-356.4,96.8-691.4,288.6-949,542.3c-178.2,176.2-277,306-410.6,538.4c-77.5,131.7-124,191.7-170.4,216.9c-60,32.9-143.3,34.9-1198.8,34.9C684.9,162,609.4,160,547.4,127.1z M2625.5-384.2c182.1-898.6,435.8-1497.1,840.5-1977.4c71.7-83.3,184-199.5,251.8-257.6s118.1-104.6,112.3-104.6c-3.9,0-108.5,31-230.5,67.8C2462.9-2313.2,1552.6-1528.8,1080-490.7l-67.8,149.1H1814h803.8L2625.5-384.2z M8920-490.7C8631.4-1126,8145.3-1707,7599.1-2071.1c-346.7-230.5-856-451.3-1311.2-565.5c-352.5-89.1-575.2-114.3-925.8-100.7c-594.6,21.3-993.6,185.9-1380.9,565.5c-261.5,257.6-462.9,567.5-610.1,943.2l-38.7,98.8l71.7-54.2c325.4-247.9,681.7-412.5,1078.8-495.8c156.9-34.9,261.5-42.6,517.1-42.6s360.3,7.7,517.1,42.6C6226-1530.8,6845.7-1095,7227.3-483l87.2,139.4l836.7,1.9h836.7L8920-490.7z " />


            <path style="stroke: #ff3b30; fill: #ff3b30; stroke-width: 110px;" d="M 8987.9 -341.7 L 8151.2 -341.7 L 7314.5 -343.6 L 7227.3 -483 C 6845.7 -1095 6226 -1530.8 5517.1 -1679.8 C 5360.3 -1714.7 5255.6 -1722.4 5000 -1722.4 C 4744.4 -1722.4 4639.8 -1714.7 4482.9 -1679.8 C 4085.8 -1596.5 3729.5 -1431.9 3404.1 -1184 L 3332.4 -1129.8 L 3371.1 -1228.6 C 3518.3 -1604.3 3719.7 -1914.2 3981.2 -2171.8 C 4368.5 -2551.4 4767.5 -2716 5362.1 -2737.3 C 5712.7 -2750.9 5935.4 -2725.7 6287.9 -2636.6 C 6743.1 -2522.4 7252.4 -2301.6 7599.1 -2071.1 C 8145.3 -1707 8631.4 -1126 8920 -490.7 Z"></path>


            <path d="M 2617.8 -341.6 L 1012.2 -341.6 L 1080 -490.7 C 1552.6 -1528.8 2462.9 -2313.2 3599.6 -2656 C 3721.6 -2692.8 3826.2 -2723.8 3830.1 -2723.8 C 3835.9 -2723.8 3785.6 -2677.3 3717.8 -2619.2 C 3650 -2561.1 3537.7 -2444.9 3466 -2361.6 C 3061.3 -1881.3 2807.6 -1282.8 2625.5 -384.2 Z" style="fill: #ff3b30; stroke: #ff3b30; stroke-width: 110px;"></path>


        </g>
    </g>
</svg>